# xmcd
#
# Track frame offsets:
#	150
#	11177
#	23367
#	37410
#	50285
#	62910
#	77072
#	89622
#	96635
#	107797
#	119657
#	129960
#	139985
#	150410
#	163435
#	175785
#
# Disc length: 2491 seconds
#
# Revision: 0
# Processed by: cddbd v1.5.2PL0 Copyright (c) Steve Scherf et al.
# Submitted via: audiograbber 1.83.01
#
DISCID=e109b910
DTITLE=EYDIE GORME Y LOS PANCHOS - SONY MUSIC MEXICO 50 AÑOS
DYEAR=1997
DGENRE=mexico
TTITLE0=JOSE ALFREDO JIMENEZ - MEDIA VUELTA
TTITLE1=PEDRO JUNCO JR - NOSOTROS
TTITLE2=CESAR PORTILLO DE LA LUZ - CONTIGO EN LA DISTANCIA
TTITLE3=GONZALO CURIEL - VEREDA TROPICAL
TTITLE4=ROBERTO LIVI, BEBU SILVETTI - DE CORAZÓN A CORAZÓN
TTITLE5=ALFREDO GIL - NO TE VAYAS SIN MI
TTITLE6=GABRIEL RUIZ - USTED
TTITLE7=VICTOR HUESCA - NOCHECITA
TTITLE8=CARLOS ALMARAN - HISTORIA DE UN AMOR
TTITLE9=MARIA GREVER - CUANDO VUELVA A TU LADO
TTITLE10=BOBBY CAPO - PIEL CANELA
TTITLE11=AGUSTIN LARA  - ORACIÓN CARIBE
TTITLE12=SERGIO DE KARLO - FÍORES NIGRAS
TTITLE13=WELLO RIVAS - CELNIZAS
TTITLE14=MARIO DE JESUS - Y...
TTITLE15=ALBERTO DOMINGUEZ - MALA NOCHE
EXTD=
EXTT0=
EXTT1=
EXTT2=
EXTT3=
EXTT4=
EXTT5=
EXTT6=
EXTT7=
EXTT8=
EXTT9=
EXTT10=
EXTT11=
EXTT12=
EXTT13=
EXTT14=
EXTT15=
PLAYORDER=
